<svg xmlns="http://www.w3.org/2000/svg" width="1289" height="128"><defs><linearGradient id="a" x1="23%" x2="77%" y1="4%" y2="92%"><stop offset="0%" stop-color="#FAD961"/><stop offset="100%" stop-color="#F76B1C"/></linearGradient></defs><g fill="none" fill-rule="evenodd"><circle cx="64" cy="64" r="64" fill="url(#a)"/><path fill="#FFF" d="M103.58 32.18H71.4v6.66h11.1v26.27a17.39 17.39 0 0 1-8.88 2.22 19.6 19.6 0 0 1-10.36-2.59 15.17 15.17 0 0 0-6.29-3.33v-.37a14.8 14.8 0 0 0 7.77-12.95c0-8.88-6.66-15.9-17.39-15.9-7.03 0-12.2 2.95-15.17 6.65l5.92 5.18c1.85-2.59 4.44-4.44 9.25-4.44 5.55 0 9.25 3.33 9.25 8.88 0 6.66-4.44 10.36-11.1 10.36h-3.33v7.4h5.92c7.4 0 11.47 3.33 11.47 9.25s-4.07 11.1-11.84 11.1a17.76 17.76 0 0 1-13.69-6.66l-5.54 5.55a26.64 26.64 0 0 0 19.23 8.14c12.21 0 19.98-8.14 19.98-18.13l-.37-2.6a18.5 18.5 0 0 0 15.17 0v27.75h8.14v-61.4h12.94v-7.04z"/><path fill="#121212" d="M227.39 89h-11.97l-4.41-11.52h-27.54L179.06 89h-11.97l23.58-60.03h13.14L227.39 89zm-19.35-20.79l-10.8-28.62-10.8 28.62h21.6zm43.29 38.43c-7.38 0-12.87-1.62-18.18-6.48l4.41-6.84c3.51 4.05 8.01 5.58 13.77 5.58 6.21 0 12.87-2.88 12.87-11.79v-5.22c-3.33 4.32-8.28 7.2-13.95 7.2-11.07 0-19.26-8.01-19.26-22.32 0-14.04 8.1-22.32 19.26-22.32 5.49 0 10.44 2.52 13.95 7.11v-6.03h9.45v41.22c0 15.66-11.61 19.89-22.32 19.89zm1.71-25.92c4.41 0 9.09-2.61 11.16-5.85v-16.2c-2.07-3.24-6.75-5.85-11.16-5.85-7.47 0-12.24 5.58-12.24 13.95s4.77 13.95 12.24 13.95zM321.89 89h-9.45v-4.68c-3.24 3.69-8.28 5.76-14.04 5.76-7.11 0-15.12-4.77-15.12-14.4 0-9.99 8.01-14.13 15.12-14.13 5.85 0 10.89 1.89 14.04 5.58v-6.48c0-5.04-4.14-8.1-10.17-8.1-4.86 0-9.09 1.8-12.87 5.49l-3.87-6.57c5.04-4.77 11.34-7.02 18.27-7.02 9.63 0 18.09 4.05 18.09 15.75V89zm-19.8-5.4c4.14 0 8.19-1.53 10.35-4.5v-6.57c-2.16-2.97-6.21-4.5-10.35-4.5-5.31 0-9.27 3.06-9.27 7.83 0 4.68 3.96 7.74 9.27 7.74zm46.89 6.48c-7.38 0-14.13-2.34-18.63-6.75l4.32-6.84c3.06 3.15 9.09 6.12 14.76 6.12s8.55-2.43 8.55-5.85c0-8.55-26.28-2.43-26.28-19.08 0-7.11 6.12-13.23 17.1-13.23 7.38 0 12.96 2.61 16.92 6.12l-3.96 6.66c-2.61-2.97-7.47-5.22-12.87-5.22-4.95 0-8.1 2.25-8.1 5.31 0 7.74 26.28 1.98 26.28 19.26 0 7.65-6.39 13.5-18.09 13.5zm40.68 0c-7.29 0-11.16-3.96-11.16-11.16V53.81h-7.2v-8.28h7.2V33.65h9.45v11.88h8.82v8.28h-8.82v22.77c0 2.97 1.44 5.13 4.14 5.13 1.8 0 3.51-.72 4.23-1.53l2.25 7.11c-1.71 1.62-4.5 2.79-8.91 2.79zm13.77 15.93l1.44-8.46c.99.45 2.52.72 3.6.72 2.97 0 4.95-.9 6.21-3.78l2.16-4.95-17.82-44.01h10.08l12.69 32.58 12.69-32.58h10.17l-20.97 51.3c-2.97 7.38-8.19 9.72-14.94 9.81-1.35 0-3.96-.27-5.31-.63zM486.59 89h-9.45v-4.68c-3.24 3.69-8.28 5.76-14.04 5.76-7.11 0-15.12-4.77-15.12-14.4 0-9.99 8.01-14.13 15.12-14.13 5.85 0 10.89 1.89 14.04 5.58v-6.48c0-5.04-4.14-8.1-10.17-8.1-4.86 0-9.09 1.8-12.87 5.49l-3.87-6.57c5.04-4.77 11.34-7.02 18.27-7.02 9.63 0 18.09 4.05 18.09 15.75V89zm-19.8-5.4c4.14 0 8.19-1.53 10.35-4.5v-6.57c-2.16-2.97-6.21-4.5-10.35-4.5-5.31 0-9.27 3.06-9.27 7.83 0 4.68 3.96 7.74 9.27 7.74z"/><g><g fill="#007BFF" transform="translate(609 7)"><path fill-rule="nonzero" d="M58 116A58 58 0 1 1 58 0a58 58 0 0 1 0 116zm.5-11a47.5 47.5 0 1 0 0-95 47.5 47.5 0 0 0 0 95z"/><circle cx="58.5" cy="57.5" r="35.5"/></g><path fill="#000" fill-rule="nonzero" d="M764.8 81a36 36 0 0 1-4-17c0-6.2 1.4-11.9 4-16.9 2.7-5 6.4-9 11.3-11.9a31.8 31.8 0 0 1 16.6-4.3 32 32 0 0 1 16.6 4.3c4.8 3 8.6 6.9 11.2 12 2.7 5 4 10.6 4 16.8 0 6.3-1.3 12-4 17-2.6 5-6.4 9-11.3 11.8a32 32 0 0 1-16.5 4.4c-6.2 0-11.8-1.5-16.6-4.4A29.7 29.7 0 0 1 764.8 81zm4.4-17c0 5 1 9.4 2.8 13.3A22 22 0 0 0 792.7 90a22.3 22.3 0 0 0 20.7-12.7c2-3.9 2.9-8.3 2.9-13.3a27 27 0 0 0-6.5-18.6c-4.4-5-10-7.4-17.1-7.4-7.1 0-12.8 2.5-17.1 7.3a27.3 27.3 0 0 0-6.4 18.7zm63.5 26l3.6-5.2c1.7 1.8 3.9 3.4 6.6 4.7 2.8 1.3 5.6 2 8.7 2 3.4 0 6.2-.8 8.1-2.3 2-1.5 3-3.4 3-5.8a5 5 0 0 0-1.7-3.8c-1-1-2.4-1.8-4-2.3l-5.7-1.6-6-1.6c-2.1-.7-4-1.4-5.7-2.3a11 11 0 0 1-5.7-9.8c0-3.9 1.5-7 4.6-9.6 3-2.6 7.3-3.8 12.6-3.8 7 0 12.8 2.2 17.2 6.7l-3.4 5a15.5 15.5 0 0 0-5.8-4.3c-2.4-1-5-1.6-8-1.6s-5.6.7-7.4 2.1a6.3 6.3 0 0 0-2.9 5.2c0 1.4.6 2.5 1.6 3.4 1.1 1 2.5 1.7 4.1 2.2l5.6 1.4c2 .5 4.1 1 6.2 1.7 2 .7 3.9 1.5 5.5 2.4 1.7 1 3 2.3 4.1 4.1 1.1 1.8 1.6 4 1.6 6.4 0 4-1.6 7.4-4.7 10-3.2 2.7-7.7 4-13.4 4-7.8 0-14-2.5-18.7-7.3zm42.5-40.3h7.5l11.3 37 12.2-37h6.2l12.1 37 11.4-37h7.6L928.6 96h-7.2l-12.1-37.3L897.2 96H890l-14.8-46.4v.1zm74 32.2c0-2.5.4-4.8 1.4-6.8 1-2 2.2-3.6 3.7-4.8a17.1 17.1 0 0 1 11-3.7c6.6 0 11.7 2 15.4 6.3v-8.4c0-3-1.1-5.4-3.3-7.1-2.2-1.7-5-2.6-8.4-2.6-5.5 0-10.3 2.2-14.3 6.5l-3.3-5c4.9-5.2 11-7.7 18.5-7.7 2.6 0 5 .3 7 .9 2.2.6 4 1.5 5.7 2.7a12 12 0 0 1 3.9 4.9c1 2 1.4 4.4 1.4 7.1V96h-7.2v-5.3c-3.9 4.3-9 6.5-15.4 6.5a17.2 17.2 0 0 1-11-4 14.5 14.5 0 0 1-5.1-11.4v.1zm7.3 0c0 3 1 5.4 3.2 7.3 2.1 2 5 2.9 8.3 2.9 2.6 0 5-.5 7.3-1.5 2.2-1 4-2.4 5.4-4.3v-8.8a13 13 0 0 0-5.4-4.2 18 18 0 0 0-7.3-1.5c-3.4 0-6.1 1-8.3 2.9a9.2 9.2 0 0 0-3.2 7.2zm45.9 14.1V32h7.1v64h-7.1zm18.8-23.2c0-7.3 2-13.2 5.8-17.7 3.8-4.4 8.8-6.6 14.9-6.6 3 0 6 .7 8.7 2.1 2.7 1.5 5 3.5 6.9 6V32h7.2v64h-7.2v-6.9c-1.8 2.4-4 4.4-6.8 5.9a18.3 18.3 0 0 1-8.8 2.2c-6.1 0-11.1-2.2-15-6.6a26 26 0 0 1-5.7-17.8zm11.6-12.8a20 20 0 0 0-4 12.8 20 20 0 0 0 4 13c2.6 3.2 6.2 4.9 10.9 4.9 2.8 0 5.4-.7 8-2.1 2.6-1.5 4.5-3.2 5.8-5.3v-21c-1.3-2-3.2-3.8-5.8-5.2a16.2 16.2 0 0 0-8-2.2c-4.6 0-8.3 1.7-11 5l.1.1zm70.4 36V32h8v56.9h29.7V96h-37.7zm44.2-14.2c0-2.5.4-4.8 1.4-6.8.9-2 2.1-3.6 3.7-4.8a17.1 17.1 0 0 1 11-3.7c6.5 0 11.7 2 15.4 6.3v-8.4c0-3-1.1-5.4-3.3-7.1-2.2-1.7-5-2.6-8.5-2.6-5.5 0-10.2 2.2-14.2 6.5l-3.3-5c4.9-5.2 11-7.7 18.5-7.7 2.6 0 5 .3 7 .9 2.1.6 4 1.5 5.7 2.7a12 12 0 0 1 3.9 4.9c1 2 1.4 4.4 1.4 7.1V96h-7.2v-5.3c-3.9 4.3-9 6.5-15.4 6.5a17.2 17.2 0 0 1-11-4 14.5 14.5 0 0 1-5.1-11.4zm7.3 0c0 3 1 5.4 3.2 7.3 2.1 2 4.9 2.9 8.3 2.9 2.6 0 5-.5 7.2-1.5 2.3-1 4.1-2.4 5.5-4.3v-8.8a13 13 0 0 0-5.5-4.2 18 18 0 0 0-7.2-1.5c-3.4 0-6.1 1-8.3 2.9a9.2 9.2 0 0 0-3.2 7.2zm45.9 14.2V32h7.1v24.6a20 20 0 0 1 7-6c2.7-1.4 5.6-2.1 8.7-2.1 6.1 0 11 2.2 14.9 6.6 4 5 6.02 11.3 5.7 17.7 0 7.5-1.9 13.4-5.7 17.8a18.8 18.8 0 0 1-15 6.6c-3 0-6-.8-8.7-2.2-2.8-1.5-5-3.5-6.9-5.9V96h-7.1zm7.1-12.6a15 15 0 0 0 5.8 5.2 17 17 0 0 0 8.2 2.1c4.5 0 8.1-1.7 10.8-5 2.7-3.3 4-7.6 4-12.9a20 20 0 0 0-4-12.9c-2.7-3.3-6.3-5-10.8-5-2.8 0-5.5.7-8.1 2.2a15.4 15.4 0 0 0-5.9 5.3v21zm44.1 6.5l3.6-5.2c1.7 1.8 3.9 3.4 6.6 4.7 2.8 1.3 5.7 2 8.7 2 3.5 0 6.2-.8 8.1-2.3 2-1.5 3-3.4 3-5.8a5 5 0 0 0-1.6-3.8c-1.1-1-2.5-1.8-4.2-2.3-1.7-.6-3.5-1.1-5.5-1.6l-6.2-1.6c-2-.7-3.9-1.4-5.6-2.3a11 11 0 0 1-5.7-9.8c0-3.9 1.5-7 4.6-9.6 3-2.6 7.3-3.8 12.6-3.8 7 0 12.8 2.2 17.2 6.7l-3.4 5a15.5 15.5 0 0 0-5.7-4.3c-2.5-1-5.1-1.6-8-1.6-3.2 0-5.7.7-7.5 2.1a6.3 6.3 0 0 0-2.8 5.2c0 1.4.5 2.5 1.5 3.4 1.1 1 2.5 1.7 4.1 2.2l5.6 1.4c2 .5 4.1 1 6.2 1.7 2 .7 3.9 1.5 5.5 2.4 1.7 1 3 2.3 4.1 4.1 1.1 1.8 1.6 4 1.6 6.4 0 4-1.5 7.4-4.7 10-3.2 2.7-7.6 4-13.4 4-7.8 0-14-2.5-18.7-7.3z"/></g></g></svg>
